<?xml version="1.0" encoding="UTF-8"?>
<svg id="Layer_1" xmlns="http://www.w3.org/2000/svg" width="4.9mm" height="4.9mm" version="1.1" viewBox="0 0 14 14">
  <!-- Generator: Adobe Illustrator 29.5.1, SVG Export Plug-In . SVG Version: 2.1.0 Build 141)  -->
  <path d="M5.3,6.4l1-1-.7-.7-.5.5-.7-.7.5-.5-.5-.5-1,1,1.9,1.9h0ZM9.2,10.3l1-1-.5-.5-.5.5-.7-.7.5-.5-.7-.7-1,1,1.9,1.9h0ZM9.5,3.5l.7.7-.7-.7ZM4.6,11.2h-2v-2l2.1-2.1-2.6-2.5,2.4-2.4,2.6,2.6,1.8-1.8c0,0,.2-.2.3-.2s.2,0,.4,0,.2,0,.4,0,.2.1.3.2l.6.7c0,0,.2.2.2.3s0,.2,0,.4,0,.2,0,.4-.1.2-.2.3l-1.8,1.8,2.6,2.6-2.4,2.4-2.6-2.6-2.1,2.1h0ZM3.5,10.2h.7l4.7-4.7-.7-.7-4.7,4.7s0,.7,0,.7ZM8.5,5.2l-.3-.3.7.7s-.3-.3-.3-.3Z"/>
</svg>